<?xml version="1.0" encoding="UTF-8"?>
<svg id="Layer_1" data-name="Layer 1" xmlns="http://www.w3.org/2000/svg" viewBox="0 0 8191.98 1379.35">
  <defs>
    <style>
      .cls-1 {
        fill: #fff;
      }
    </style>
  </defs>
  <g>
    <path class="cls-1" d="M428.84,882.47l-3.96-502.48h522.26V.17l-516.49-.17C167.71,9.22.39,226.3,0,449.04c-.22,122.21,49.83,246.14,161.89,338.36,96.65,79.53,266.95,95.07,266.95,95.07h0Z"/>
    <path class="cls-1" d="M539.62,494.73c322.49,19.12,518.86,372.28,359.24,657.96-76.11,136.22-218.31,215.17-372.93,224.41H19.66c-8.55-1.16,9.02-70.09,11.57-79.2,40.95-146.43,170.16-259.77,317.7-291.61,63.02-13.6,126.65-8.13,190.72-9.09v-502.48h0Z"/>
    <rect class="cls-1" x="1057.94" y="494.73" width="364.01" height="882.37"/>
    <path class="cls-1" d="M1057.94.17h364.01c1.06,197.01-167.64,369.2-364.01,375.84-.23-7.04,0-375.84,0-375.84h0Z"/>
  </g>
  <g>
    <path class="cls-1" d="M2005.63,746.37c-36.08-15.82-64.58-37.51-85.47-65.05-20.89-27.54-32.61-58.4-35.14-92.58h160.47c1.9,18.37,10.45,33.23,25.64,44.63s33.86,17.09,56.02,17.09c20.25,0,35.92-3.95,47.01-11.87,11.07-7.91,16.61-18.2,16.61-30.86,0-15.19-7.92-26.42-23.74-33.71-15.84-7.27-41.47-15.34-76.92-24.21-37.99-8.85-69.64-18.19-94.96-28.01-25.33-9.81-47.16-25.32-65.52-46.53-18.37-21.2-27.54-49.85-27.54-85.94,0-30.38,8.38-58.07,25.17-83.09,16.77-25,41.46-44.78,74.07-59.35,32.59-14.55,71.36-21.84,116.32-21.84,66.47,0,118.84,16.47,157.15,49.38,38.29,32.93,60.3,76.6,66,131.04h-150.03c-2.54-18.35-10.61-32.91-24.21-43.68-13.62-10.75-31.5-16.14-53.66-16.14-18.99,0-33.56,3.65-43.68,10.92-10.14,7.29-15.19,17.26-15.19,29.91,0,15.19,8.07,26.59,24.21,34.19,16.15,7.6,41.31,15.19,75.5,22.79,39.24,10.14,71.22,20.11,95.91,29.91,24.69,9.82,46.36,25.64,65.05,47.48,18.67,21.84,28.32,51.13,28.96,87.84,0,31.03-8.71,58.72-26.12,83.09-17.41,24.38-42.42,43.53-75.02,57.45-32.61,13.92-70.42,20.89-113.47,20.89-46.22,0-87.36-7.91-123.45-23.74l.02-.02Z"/>
    <path class="cls-1" d="M2455.25,152.41c-18.04-16.77-27.06-37.51-27.06-62.19s9.02-46.36,27.06-63.15c18.04-16.77,41.31-25.16,69.8-25.16s50.81,8.4,68.85,25.16c18.04,16.79,27.06,37.83,27.06,63.15s-9.02,45.43-27.06,62.19c-18.04,16.79-41,25.16-68.85,25.16s-51.75-8.38-69.8-25.16ZM2605.76,232.65v529.86h-162.37V232.65h162.37Z"/>
    <path class="cls-1" d="M3195.44,287.26c36.71,40.21,55.08,95.43,55.08,165.69v309.56h-161.42v-287.72c0-35.44-9.19-62.98-27.54-82.62-18.37-19.62-43.06-29.44-74.07-29.44s-55.71,9.82-74.07,29.44c-18.37,19.63-27.54,47.16-27.54,82.62v287.72h-162.37V59.84h162.37v244.04c16.45-23.41,38.93-42.09,67.42-56.03,28.49-13.92,60.44-20.89,95.91-20.89,60.77,0,109.51,20.11,146.23,60.3Z"/>
    <path class="cls-1" d="M3464.63,736.87c-41.47-22.15-74.07-53.79-97.81-94.96-23.74-41.14-35.61-89.26-35.61-144.33s12.02-102.39,36.08-143.85c24.05-41.46,56.98-73.26,98.76-95.43,41.78-22.15,88.62-33.23,140.53-33.23s98.76,11.09,140.53,33.23c41.78,22.17,74.69,53.98,98.76,95.43,24.04,41.47,36.08,89.42,36.08,143.85s-12.2,102.41-36.56,143.85c-24.38,41.47-57.6,73.28-99.71,95.44-42.1,22.16-89.11,33.23-141,33.23s-98.6-11.07-140.06-33.23h0ZM3683.98,595.39c21.84-22.79,32.76-55.39,32.76-97.81s-10.61-75.02-31.81-97.81c-21.21-22.79-47.33-34.19-78.35-34.19s-57.93,11.24-78.81,33.71c-20.89,22.49-31.34,55.23-31.34,98.28s10.28,75.02,30.86,97.81c20.56,22.79,46.36,34.19,77.39,34.19s57.45-11.39,79.29-34.19h0Z"/>
    <path class="cls-1" d="M4439.83,287.26c37.04,40.21,55.55,95.43,55.55,165.69v309.56h-161.43v-287.72c0-35.44-9.19-62.98-27.54-82.62-18.36-19.62-43.05-29.44-74.06-29.44s-55.71,9.82-74.07,29.44c-18.37,19.63-27.54,47.16-27.54,82.62v287.72h-162.37V232.65h162.37v70.27c16.46-23.42,38.61-41.94,66.47-55.55,27.85-13.6,59.18-20.42,94.01-20.42,62.03,0,111.58,20.11,148.61,60.3h0Z"/>
    <path class="cls-1" d="M5105,536.51h-367.49c2.52,32.93,13.12,58.08,31.81,75.5,18.67,17.41,41.62,26.11,68.85,26.11,40.52,0,68.69-17.09,84.51-51.27h172.82c-8.87,34.83-24.86,66.15-47.96,94.01-23.11,27.86-52.07,49.7-86.88,65.52-34.83,15.83-73.76,23.74-116.81,23.74-51.91,0-98.13-11.07-138.63-33.23-40.52-22.15-72.17-53.79-94.97-94.96-22.79-41.14-34.19-89.26-34.19-144.33s11.23-103.17,33.71-144.33c22.47-41.14,53.96-72.78,94.48-94.96,40.52-22.15,87.03-33.23,139.58-33.23s96.86,10.77,136.74,32.29c39.89,21.53,71.05,52.23,93.54,92.11,22.46,39.88,33.71,86.41,33.71,139.58,0,15.19-.96,31.03-2.85,47.48l.03-.02ZM4941.67,446.31c0-27.85-9.5-50-28.5-66.47-18.99-16.45-42.73-24.69-71.21-24.69s-50.18,7.92-68.86,23.74c-18.68,15.84-30.23,38.31-34.66,67.43h203.22Z"/>
    <path class="cls-1" d="M5285.41,746.37c-36.08-15.82-64.57-37.51-85.46-65.05-20.89-27.54-32.61-58.4-35.13-92.58h160.47c1.9,18.37,10.44,33.23,25.64,44.63,15.19,11.4,33.86,17.09,56.03,17.09,20.25,0,35.92-3.95,47-11.87,11.07-7.91,16.62-18.2,16.62-30.86,0-15.19-7.93-26.42-23.74-33.71-15.84-7.27-41.46-15.34-76.92-24.21-37.98-8.85-69.64-18.19-94.96-28.01-25.33-9.81-47.16-25.32-65.52-46.53-18.37-21.2-27.54-49.85-27.54-85.94,0-30.38,8.38-58.07,25.16-83.09,16.77-25,41.46-44.78,74.07-59.35,32.6-14.55,71.36-21.84,116.32-21.84,66.47,0,118.85,16.47,157.16,49.38,38.29,32.93,60.3,76.6,66,131.04h-150.03c-2.54-18.35-10.62-32.91-24.22-43.68-13.62-10.75-31.5-16.14-53.65-16.14-18.99,0-33.56,3.65-43.68,10.92-10.14,7.29-15.19,17.26-15.19,29.91,0,15.19,8.07,26.59,24.22,34.19,16.14,7.6,41.31,15.19,75.49,22.79,39.23,10.14,71.22,20.11,95.9,29.91,24.69,9.82,46.36,25.64,65.05,47.48,18.68,21.84,28.33,51.13,28.97,87.84,0,31.03-8.72,58.72-26.12,83.09-17.41,24.38-42.42,43.53-75.02,57.45-32.61,13.92-70.42,20.89-113.47,20.89-46.22,0-87.36-7.91-123.45-23.74v-.02Z"/>
    <path class="cls-1" d="M6018.47,624.83v137.68h-82.61c-58.88,0-104.78-14.4-137.68-43.21-32.93-28.79-49.38-75.8-49.38-141v-210.8h-64.58v-134.84h64.58V103.52h162.37v129.15h106.35v134.84h-106.35v212.7c0,15.84,3.8,27.23,11.4,34.19,7.59,6.97,20.24,10.45,37.98,10.45h57.92Z"/>
    <path class="cls-1" d="M6631.88,232.65v529.86h-162.37v-72.17c-16.47,23.43-38.78,42.26-66.94,56.5-28.18,14.24-59.35,21.37-93.54,21.37-40.52,0-76.29-9.02-107.3-27.07-31.03-18.04-55.08-44.16-72.17-78.34-17.1-34.19-25.65-74.38-25.65-120.6V232.65h161.43v287.72c0,35.46,9.17,63,27.54,82.62,18.35,19.63,43.04,29.44,74.07,29.44s56.64-9.81,75.02-29.44c18.35-19.62,27.53-47.16,27.53-82.62V232.65h162.37Z"/>
    <path class="cls-1" d="M6747.25,353.25c20.57-41.14,48.58-72.78,84.04-94.96,35.45-22.15,75.02-33.23,118.7-33.23,34.82,0,66.62,7.29,95.44,21.84,28.79,14.57,51.42,34.19,67.9,58.88V59.84h162.37v702.67h-162.37v-75.97c-15.19,25.33-36.89,45.58-65.05,60.77-28.18,15.19-60.94,22.79-98.29,22.79-43.68,0-83.24-11.23-118.7-33.71-35.46-22.47-63.47-54.43-84.04-95.91-20.58-41.46-30.85-89.4-30.85-143.85s10.27-102.22,30.85-143.38h0ZM7079.59,401.67c-22.48-23.42-49.85-35.14-82.15-35.14s-59.67,11.57-82.14,34.66c-22.48,23.11-33.71,54.92-33.71,95.43s11.23,72.64,33.71,96.38c22.47,23.74,49.85,35.61,82.14,35.61s59.67-11.7,82.15-35.13c22.46-23.42,33.71-55.39,33.71-95.91s-11.25-72.47-33.71-95.91h0Z"/>
    <path class="cls-1" d="M7405.29,152.41c-18.04-16.77-27.07-37.51-27.07-62.19s9.02-46.36,27.07-63.15c18.03-16.77,41.31-25.16,69.79-25.16s50.8,8.4,68.85,25.16c18.04,16.79,27.07,37.83,27.07,63.15s-9.02,45.43-27.07,62.19c-18.04,16.79-40.99,25.16-68.85,25.16s-51.76-8.38-69.79-25.16ZM7555.8,232.65v529.86h-162.37V232.65h162.37Z"/>
    <path class="cls-1" d="M7774.66,736.87c-41.46-22.15-74.06-53.79-97.81-94.96-23.74-41.14-35.61-89.26-35.61-144.33s12.02-102.39,36.08-143.85c24.05-41.46,56.97-73.26,98.76-95.43,41.78-22.15,88.62-33.23,140.53-33.23s98.75,11.09,140.54,33.23c41.78,22.17,74.68,53.98,98.75,95.43,24.05,41.47,36.09,89.42,36.09,143.85s-12.2,102.41-36.56,143.85c-24.38,41.47-57.6,73.28-99.71,95.44-42.1,22.16-89.11,33.23-141,33.23s-98.6-11.07-140.06-33.23h0ZM7994.01,595.39c21.84-22.79,32.77-55.39,32.77-97.81s-10.61-75.02-31.81-97.81c-21.22-22.79-47.33-34.19-78.34-34.19s-57.93,11.24-78.82,33.71c-20.88,22.49-31.34,55.23-31.34,98.28s10.28,75.02,30.86,97.81c20.57,22.79,46.36,34.19,77.39,34.19s57.45-11.39,79.29-34.19h0Z"/>
  </g>
  <g>
    <path class="cls-1" d="M2019.46,1015.69c13.36-7.12,28.64-10.68,45.85-10.68,20.48,0,39.02,5.2,55.64,15.58,16.61,10.39,29.74,25.23,39.39,44.51,9.64,19.3,14.46,41.7,14.46,67.21s-4.83,48.01-14.46,67.44c-9.65,19.44-22.78,34.42-39.39,44.96-16.62,10.53-35.17,15.8-55.64,15.8-17.51,0-32.8-3.49-45.85-10.45-13.06-6.97-23.3-16.25-30.71-27.82v34.72h-76.11v-329.38h76.11v116.17c7.12-11.58,17.36-20.91,30.71-28.04h0ZM2081.55,1087.57c-10.54-10.83-23.52-16.25-38.95-16.25s-27.97,5.49-38.51,16.47c-10.54,10.98-15.81,25.97-15.81,44.95s5.27,33.98,15.81,44.96c10.53,10.97,23.37,16.46,38.51,16.46s28.04-5.56,38.72-16.69c10.67-11.13,16.02-26.18,16.02-45.18s-5.27-33.89-15.8-44.74h0Z"/>
    <path class="cls-1" d="M2489.04,1008.57v248.37h-76.11v-33.83c-7.73,10.98-18.18,19.8-31.39,26.48-13.2,6.69-27.82,10.02-43.84,10.02-19,0-35.77-4.23-50.3-12.68-14.54-8.46-25.82-20.7-33.84-36.73-8.01-16.02-12.02-34.86-12.02-56.53v-145.11h75.66v134.86c0,16.62,4.3,29.53,12.91,38.72,8.6,9.21,20.17,13.8,34.72,13.8s26.55-4.59,35.17-13.8c8.6-9.2,12.91-22.1,12.91-38.72v-134.86h76.12Z"/>
    <path class="cls-1" d="M2578.29,970.96c-8.46-7.85-12.69-17.58-12.69-29.15s4.23-21.73,12.69-29.6c8.46-7.86,19.36-11.79,32.72-11.79s23.81,3.93,32.27,11.79c8.46,7.86,12.69,17.74,12.69,29.6s-4.23,21.3-12.69,29.15c-8.46,7.87-19.21,11.79-32.27,11.79s-24.26-3.92-32.72-11.79ZM2648.84,1008.57v248.37h-76.11v-248.37h76.11Z"/>
    <path class="cls-1" d="M2809.07,927.57v329.38h-76.11v-329.38h76.11Z"/>
    <path class="cls-1" d="M2892.53,1065.1c9.64-19.28,22.77-34.12,39.39-44.51,16.61-10.38,35.16-15.58,55.64-15.58,16.32,0,31.22,3.42,44.74,10.24,13.5,6.83,24.1,16.02,31.82,27.6v-115.28h76.11v329.38h-76.11v-35.62c-7.12,11.87-17.29,21.37-30.49,28.49-13.2,7.13-28.57,10.68-46.07,10.68-20.48,0-39.03-5.27-55.64-15.8-16.62-10.54-29.75-25.52-39.39-44.96-9.65-19.43-14.47-41.91-14.47-67.44s4.82-47.91,14.47-67.21ZM3048.32,1087.8c-10.54-10.97-23.37-16.47-38.51-16.47s-27.97,5.42-38.51,16.25c-10.54,10.84-15.81,25.76-15.81,44.74s5.27,34.05,15.81,45.18c10.53,11.13,23.37,16.69,38.51,16.69s27.96-5.48,38.51-16.46c10.53-10.98,15.8-25.96,15.8-44.96s-5.27-33.97-15.8-44.95Z"/>
    <path class="cls-1" d="M3454.47,1015.69c13.36-7.12,28.64-10.68,45.85-10.68,20.48,0,39.02,5.2,55.64,15.58,16.61,10.39,29.74,25.23,39.39,44.51,9.64,19.3,14.46,41.7,14.46,67.21s-4.83,48.01-14.46,67.44c-9.65,19.44-22.78,34.42-39.39,44.96-16.62,10.53-35.17,15.8-55.64,15.8-17.51,0-32.8-3.49-45.85-10.45-13.06-6.97-23.3-16.25-30.71-27.82v34.72h-76.11v-329.38h76.11v116.17c7.12-11.58,17.36-20.91,30.71-28.04h0ZM3516.56,1087.57c-10.54-10.83-23.52-16.25-38.95-16.25s-27.97,5.49-38.51,16.47-15.81,25.97-15.81,44.95,5.27,33.98,15.81,44.96c10.53,10.97,23.37,16.46,38.51,16.46s28.04-5.56,38.72-16.69c10.67-11.13,16.02-26.18,16.02-45.18s-5.27-33.89-15.8-44.74h0Z"/>
    <path class="cls-1" d="M3911.59,1151.01h-172.26c1.18,15.42,6.15,27.23,14.91,35.38s19.51,12.24,32.27,12.24c18.99,0,32.19-8.01,39.61-24.03h81.01c-4.16,16.33-11.65,31.01-22.48,44.07-10.84,13.06-24.4,23.3-40.73,30.71-16.32,7.42-34.57,11.13-54.74,11.13-24.34,0-46-5.19-64.99-15.57-18.99-10.38-33.83-25.22-44.51-44.51s-16.02-41.85-16.02-67.66,5.27-48.36,15.81-67.65c10.53-19.28,25.3-34.12,44.29-44.51,18.99-10.38,40.8-15.58,65.43-15.58s45.4,5.05,64.1,15.14c18.7,10.1,33.31,24.48,43.84,43.18s15.81,40.51,15.81,65.43c0,7.12-.44,14.53-1.33,22.26v-.02ZM3835.03,1108.73c0-13.05-4.46-23.44-13.36-31.15-8.9-7.72-20.03-11.59-33.39-11.59s-23.52,3.72-32.27,11.13c-8.76,7.42-14.17,17.96-16.25,31.6h95.26Z"/>
    <path class="cls-1" d="M4120.34,1192.4v64.55h-38.72c-27.6,0-49.11-6.75-64.54-20.25-15.43-13.5-23.15-35.53-23.15-66.1v-98.82h-30.27v-63.21h30.27v-60.53h76.11v60.53h49.85v63.21h-49.85v99.71c0,7.42,1.77,12.77,5.34,16.02,3.55,3.27,9.49,4.9,17.8,4.9h27.16Z"/>
    <path class="cls-1" d="M4329.98,1192.4v64.55h-38.72c-27.6,0-49.11-6.75-64.54-20.25-15.43-13.5-23.15-35.53-23.15-66.1v-98.82h-30.26v-63.21h30.26v-60.53h76.11v60.53h49.85v63.21h-49.85v99.71c0,7.42,1.77,12.77,5.34,16.02,3.56,3.27,9.5,4.9,17.8,4.9h27.16,0Z"/>
    <path class="cls-1" d="M4633.98,1151.01h-172.26c1.18,15.42,6.15,27.23,14.92,35.38,8.75,8.16,19.5,12.24,32.26,12.24,18.99,0,32.19-8.01,39.61-24.03h81.01c-4.16,16.33-11.65,31.01-22.48,44.07-10.84,13.06-24.4,23.3-40.72,30.71-16.33,7.42-34.57,11.13-54.75,11.13-24.34,0-46-5.19-64.99-15.57-18.99-10.38-33.83-25.22-44.51-44.51s-16.02-41.85-16.02-67.66,5.27-48.36,15.81-67.65c10.53-19.28,25.3-34.12,44.29-44.51,18.99-10.38,40.8-15.58,65.43-15.58s45.4,5.05,64.09,15.14c18.71,10.1,33.31,24.48,43.84,43.18,10.53,18.7,15.81,40.51,15.81,65.43,0,7.12-.44,14.53-1.33,22.26v-.02ZM4557.42,1108.73c0-13.05-4.46-23.44-13.35-31.15-8.9-7.72-20.04-11.59-33.39-11.59s-23.52,3.72-32.27,11.13c-8.77,7.42-14.18,17.96-16.25,31.6h95.25Z"/>
    <path class="cls-1" d="M4813.81,1017.7c13.35-7.86,28.19-11.79,44.51-11.79v80.56h-20.92c-18.99,0-33.24,4.08-42.74,12.24-9.5,8.17-14.24,22.48-14.24,42.95v115.29h-76.11v-248.37h76.11v41.4c8.89-13.65,20.03-24.41,33.39-32.27h0Z"/>
    <path class="cls-1" d="M5049.93,1169.57c-8.45-7.85-12.68-17.58-12.68-29.15s4.23-21.81,12.68-29.82c8.46-8.02,19.37-12.02,32.72-12.02s23.82,4,32.27,12.02c8.46,8.01,12.68,17.96,12.68,29.82s-4.22,21.3-12.68,29.15c-8.45,7.87-19.21,11.79-32.27,11.79s-24.26-3.92-32.72-11.79Z"/>
    <path class="cls-1" d="M5465.21,1015.69c13.2,7.13,23.37,16.47,30.5,28.04v-35.16h76.1v247.93c0,22.85-4.52,43.54-13.57,62.09-9.06,18.54-22.86,33.31-41.4,44.29-18.55,10.97-41.61,16.47-69.21,16.47-36.79,0-66.62-8.69-89.46-26.04-22.86-17.35-35.9-40.88-39.17-70.55h75.22c2.38,9.5,8.02,16.99,16.91,22.48,8.9,5.49,19.88,8.24,32.93,8.24,15.73,0,28.26-4.53,37.62-13.58s14.02-23.52,14.02-43.39v-35.17c-7.42,11.58-17.66,21-30.72,28.26-13.06,7.29-28.34,10.91-45.84,10.91-20.48,0-39.03-5.27-55.64-15.8-16.62-10.54-29.75-25.52-39.39-44.96-9.65-19.43-14.47-41.91-14.47-67.44s4.82-47.91,14.47-67.21c9.64-19.28,22.77-34.12,39.39-44.51,16.61-10.38,35.16-15.58,55.64-15.58,17.5,0,32.86,3.56,46.07,10.68h0ZM5479.9,1087.8c-10.54-10.97-23.37-16.47-38.51-16.47s-27.97,5.42-38.51,16.25c-10.54,10.84-15.81,25.76-15.81,44.74s5.27,34.05,15.81,45.18c10.53,11.13,23.37,16.69,38.51,16.69s27.96-5.48,38.51-16.46c10.53-10.98,15.81-25.96,15.81-44.96s-5.28-33.97-15.81-44.95Z"/>
    <path class="cls-1" d="M5765.43,1017.7c13.35-7.86,28.19-11.79,44.51-11.79v80.56h-20.92c-18.99,0-33.24,4.08-42.74,12.24-9.5,8.17-14.24,22.48-14.24,42.95v115.29h-76.11v-248.37h76.11v41.4c8.89-13.65,20.03-24.41,33.39-32.27h0Z"/>
    <path class="cls-1" d="M5922.77,1244.93c-19.43-10.38-34.72-25.22-45.84-44.51s-16.69-41.85-16.69-67.66,5.63-47.99,16.91-67.44c11.27-19.43,26.71-34.34,46.29-44.74,19.58-10.38,41.53-15.58,65.87-15.58s46.29,5.2,65.88,15.58c19.59,10.39,35.01,25.31,46.29,44.74,11.27,19.44,16.91,41.93,16.91,67.44s-5.72,48.01-17.14,67.45c-11.43,19.43-27.01,34.35-46.74,44.74-19.73,10.38-41.77,15.57-66.1,15.57s-46.22-5.19-65.65-15.57h0ZM6025.59,1178.61c10.24-10.68,15.36-25.96,15.36-45.85s-4.98-35.16-14.92-45.84c-9.95-10.68-22.19-16.02-36.73-16.02s-27.15,5.28-36.94,15.81c-9.79,10.54-14.69,25.89-14.69,46.07s4.82,35.17,14.47,45.85c9.64,10.68,21.73,16.02,36.27,16.02s26.93-5.34,37.17-16.02h0Z"/>
    <path class="cls-1" d="M6544.37,1008.57l-67.21,248.37h-84.12l-39.17-161.13-40.51,161.13h-83.69l-67.65-248.37h76.11l35.16,177.6,41.85-177.6h80.56l42.29,176.71,34.72-176.71h71.68Z"/>
    <path class="cls-1" d="M6850.14,1071.78h-40.95v185.17h-76.11v-185.17h-27.6v-63.21h27.6v-7.12c0-30.57,8.76-53.79,26.27-69.66,17.5-15.88,43.18-23.81,77.01-23.81,5.63,0,9.79.16,12.46.44v64.55c-14.53-.89-24.78,1.19-30.71,6.23-5.94,5.05-8.9,14.09-8.9,27.16v2.22h40.95v63.21h0Z"/>
    <path class="cls-1" d="M6914.02,1065.1c9.64-19.28,22.77-34.12,39.39-44.51,16.61-10.38,35.16-15.58,55.64-15.58,17.5,0,32.86,3.56,46.07,10.68,13.2,7.13,23.37,16.47,30.5,28.04v-35.16h76.1v248.37h-76.1v-35.17c-7.42,11.59-17.74,20.92-30.94,28.04-13.2,7.13-28.57,10.68-46.07,10.68-20.18,0-38.58-5.27-55.2-15.8-16.62-10.54-29.75-25.52-39.39-44.96-9.65-19.43-14.47-41.91-14.47-67.44s4.82-47.91,14.47-67.21h0ZM7069.8,1087.8c-10.54-10.97-23.37-16.47-38.51-16.47s-27.97,5.42-38.51,16.25c-10.54,10.84-15.81,25.76-15.81,44.74s5.27,34.05,15.81,45.18c10.53,11.13,23.37,16.69,38.51,16.69s27.96-5.48,38.51-16.46c10.53-10.98,15.81-25.96,15.81-44.96s-5.28-33.97-15.81-44.95Z"/>
    <path class="cls-1" d="M7289.01,1249.37c-16.91-7.41-30.27-17.58-40.05-30.49-9.79-12.91-15.29-27.37-16.47-43.4h75.22c.89,8.61,4.9,15.58,12.02,20.92,7.13,5.34,15.88,8.01,26.27,8.01,9.5,0,16.83-1.84,22.04-5.56,5.19-3.7,7.79-8.52,7.79-14.46,0-7.13-3.71-12.39-11.13-15.81s-19.43-7.2-36.05-11.35c-17.8-4.15-32.65-8.53-44.51-13.13-11.87-4.59-22.11-11.86-30.72-21.8s-12.91-23.38-12.91-40.29c0-14.24,3.93-27.22,11.79-38.95,7.86-11.71,19.43-20.99,34.72-27.82,15.28-6.82,33.46-10.24,54.53-10.24,31.16,0,55.7,7.73,73.67,23.15,17.96,15.42,28.26,35.9,30.94,61.42h-70.33c-1.18-8.61-4.97-15.42-11.35-20.48-6.39-5.04-14.76-7.56-25.14-7.56-8.9,0-15.74,1.71-20.48,5.12-4.75,3.41-7.12,8.09-7.12,14.01,0,7.12,3.78,12.46,11.35,16.02,7.56,3.56,19.36,7.12,35.38,10.68,18.4,4.75,33.39,9.42,44.95,14.01,11.58,4.6,21.73,12.03,30.5,22.26,8.76,10.24,13.27,23.97,13.57,41.18,0,14.53-4.07,27.53-12.24,38.95-8.16,11.43-19.88,20.4-35.16,26.93-15.29,6.52-33.01,9.78-53.2,9.78-21.66,0-40.95-3.7-57.86-11.13h-.01Z"/>
    <path class="cls-1" d="M7661.57,1192.4v64.55h-38.72c-27.6,0-49.11-6.75-64.55-20.25-15.42-13.5-23.14-35.53-23.14-66.1v-98.82h-30.26v-63.21h30.26v-60.53h76.11v60.53h49.85v63.21h-49.85v99.71c0,7.42,1.77,12.77,5.34,16.02,3.55,3.27,9.5,4.9,17.8,4.9h27.16,0Z"/>
    <path class="cls-1" d="M7965.57,1151.01h-172.26c1.18,15.42,6.15,27.23,14.92,35.38,8.75,8.16,19.5,12.24,32.26,12.24,18.99,0,32.19-8.01,39.61-24.03h81.01c-4.16,16.33-11.65,31.01-22.48,44.07-10.84,13.06-24.4,23.3-40.72,30.71-16.33,7.42-34.57,11.13-54.75,11.13-24.34,0-46-5.19-64.99-15.57-18.99-10.38-33.83-25.22-44.51-44.51s-16.02-41.85-16.02-67.66,5.27-48.36,15.81-67.65c10.53-19.28,25.3-34.12,44.29-44.51,18.99-10.38,40.8-15.58,65.43-15.58s45.4,5.05,64.09,15.14c18.71,10.1,33.31,24.48,43.84,43.18,10.53,18.7,15.81,40.51,15.81,65.43,0,7.12-.44,14.53-1.33,22.26v-.02ZM7889.01,1108.73c0-13.05-4.46-23.44-13.35-31.15-8.9-7.72-20.04-11.59-33.39-11.59s-23.52,3.72-32.27,11.13c-8.77,7.42-14.18,17.96-16.25,31.6h95.25Z"/>
    <path class="cls-1" d="M8145.4,1017.7c13.35-7.86,28.19-11.79,44.51-11.79v80.56h-20.92c-18.99,0-33.24,4.08-42.74,12.24-9.5,8.17-14.24,22.48-14.24,42.95v115.29h-76.11v-248.37h76.11v41.4c8.89-13.65,20.03-24.41,33.39-32.27h0Z"/>
  </g>
</svg>