<?xml version="1.0" encoding="UTF-8"?>
<svg id="Layer_1" data-name="Layer 1" xmlns="http://www.w3.org/2000/svg" viewBox="0 0 1012.05 980.14">
  <defs>
    <style>
      .cls-1 {
        fill: #fff;
      }
    </style>
  </defs>
  <path class="cls-1" d="M305.22,628.08l-2.82-357.63h371.71V.12l-367.6-.12C119.37,6.56.28,161.06,0,319.6c-.15,86.99,35.46,175.18,115.23,240.82,68.79,56.6,190,67.67,190,67.67h-.01Z"/>
  <path class="cls-1" d="M384.07,352.12c229.52,13.61,369.3,264.97,255.69,468.3-54.17,96.95-155.38,153.14-265.43,159.72H13.99c-6.08-.82,6.42-49.89,8.23-56.37,29.14-104.22,121.11-184.89,226.11-207.55,44.86-9.68,90.14-5.79,135.74-6.47v-357.63h0Z"/>
  <rect class="cls-1" x="752.97" y="352.12" width="259.08" height="628.02"/>
  <path class="cls-1" d="M752.97.12h259.08c.75,140.22-119.32,262.77-259.08,267.5-.16-5.01,0-267.5,0-267.5Z"/>
</svg>