<?xml version="1.0" encoding="UTF-8"?>
<svg id="Layer_1" data-name="Layer 1" xmlns="http://www.w3.org/2000/svg" viewBox="0 0 8364.85 1408.45">
  <defs>
    <style>
      .cls-1 {
        fill: #010101;
      }
    </style>
  </defs>
  <g>
    <path d="M437.89,901.09l-4.04-513.08h533.28V.17l-527.39-.17C171.25,9.41.4,231.07,0,458.51c-.22,124.79,50.88,251.33,165.31,345.5,98.69,81.21,272.58,97.08,272.58,97.08Z"/>
    <path d="M551.01,505.17c329.29,19.52,529.81,380.14,366.82,671.84-77.72,139.09-222.92,219.71-380.8,229.15H20.07c-8.73-1.18,9.21-71.57,11.81-80.87,41.81-149.52,173.75-265.25,324.4-297.76,64.35-13.89,129.32-8.3,194.74-9.28V505.17Z"/>
    <rect x="1080.26" y="505.17" width="371.69" height="900.99"/>
    <path d="M1080.26.17h371.69c1.08,201.17-171.18,376.99-371.69,383.77-.23-7.19,0-383.77,0-383.77Z"/>
  </g>
  <g>
    <path class="cls-1" d="M2047.95,762.12c-36.84-16.15-65.94-38.3-87.27-66.42-21.33-28.12-33.3-59.63-35.88-94.53h163.86c1.94,18.76,10.67,33.93,26.18,45.57,15.51,11.64,34.57,17.45,57.2,17.45,20.68,0,36.68-4.03,48-12.12,11.3-8.08,16.96-18.58,16.96-31.51,0-15.51-8.09-26.98-24.24-34.42-16.17-7.42-42.34-15.66-78.54-24.72-38.79-9.04-71.11-18.57-96.96-28.6-25.86-10.02-48.16-25.85-66.9-47.51-18.76-21.65-28.12-50.9-28.12-87.75,0-31.02,8.56-59.3,25.7-84.84,17.12-25.53,42.33-45.72,75.63-60.6,33.28-14.86,72.87-22.3,118.77-22.3,67.87,0,121.35,16.82,160.47,50.42,39.1,33.62,61.57,78.22,67.39,133.81h-153.2c-2.59-18.74-10.83-33.6-24.72-44.6-13.91-10.98-32.16-16.48-54.79-16.48-19.39,0-34.27,3.73-44.6,11.15-10.35,7.44-15.51,17.62-15.51,30.54,0,15.51,8.24,27.15,24.72,34.91,16.49,7.76,42.18,15.51,77.09,23.27,40.07,10.35,72.72,20.53,97.93,30.54,25.21,10.03,47.34,26.18,66.42,48.48,19.06,22.3,28.92,52.21,29.57,89.69,0,31.68-8.89,59.96-26.67,84.84-17.78,24.89-43.31,44.45-76.6,58.66-33.3,14.21-71.91,21.33-115.86,21.33-47.2,0-89.2-8.08-126.05-24.24Z"/>
    <path class="cls-1" d="M2507.05,155.63c-18.42-17.12-27.63-38.3-27.63-63.5s9.21-47.34,27.63-64.48c18.42-17.12,42.18-25.69,71.27-25.69s51.88,8.58,70.3,25.69c18.42,17.14,27.63,38.63,27.63,64.48s-9.21,46.39-27.63,63.5c-18.42,17.14-41.86,25.69-70.3,25.69s-52.84-8.56-71.27-25.69ZM2660.74,237.56v541.04h-165.8V237.56h165.8Z"/>
    <path class="cls-1" d="M3262.86,293.32c37.48,41.06,56.24,97.44,56.24,169.19v316.09h-164.83v-293.79c0-36.19-9.38-64.31-28.12-84.36-18.76-20.03-43.97-30.06-75.63-30.06s-56.89,10.03-75.63,30.06c-18.76,20.04-28.12,48.16-28.12,84.36v293.79h-165.8V61.1h165.8v249.19c16.8-23.9,39.75-42.98,68.84-57.21,29.09-14.21,61.72-21.33,97.93-21.33,62.05,0,111.82,20.53,149.32,61.57Z"/>
    <path class="cls-1" d="M3537.73,752.42c-42.34-22.62-75.63-54.93-99.87-96.96-24.24-42.01-36.36-91.14-36.36-147.38s12.27-104.55,36.84-146.89c24.56-42.33,58.18-74.81,100.84-97.44,42.66-22.62,90.49-33.93,143.5-33.93s100.84,11.32,143.5,33.93c42.66,22.64,76.27,55.12,100.84,97.44,24.55,42.34,36.84,91.31,36.84,146.89s-12.46,104.57-37.33,146.89c-24.89,42.35-58.82,74.83-101.81,97.45-42.99,22.63-90.99,33.93-143.98,33.93s-100.68-11.3-143.02-33.93ZM3761.71,607.95c22.3-23.27,33.45-56.56,33.45-99.87s-10.83-76.6-32.48-99.87c-21.66-23.27-48.33-34.91-80-34.91s-59.15,11.48-80.47,34.42c-21.33,22.96-32,56.4-32,100.35s10.5,76.6,31.51,99.87c20.99,23.27,47.34,34.91,79.02,34.91s58.66-11.63,80.96-34.91Z"/>
    <path class="cls-1" d="M4533.51,293.32c37.82,41.06,56.72,97.44,56.72,169.19v316.09h-164.84v-293.79c0-36.19-9.38-64.31-28.12-84.36-18.75-20.03-43.96-30.06-75.62-30.06s-56.89,10.03-75.63,30.06c-18.76,20.04-28.12,48.16-28.12,84.36v293.79h-165.8V237.56h165.8v71.75c16.81-23.91,39.42-42.82,67.87-56.72,28.44-13.89,60.43-20.85,95.99-20.85,63.34,0,113.93,20.53,151.75,61.57Z"/>
    <path class="cls-1" d="M5212.71,547.83h-375.24c2.57,33.62,13.4,59.31,32.48,77.09,19.06,17.78,42.5,26.66,70.3,26.66,41.37,0,70.14-17.45,86.29-52.35h176.47c-9.06,35.56-25.38,67.55-48.97,95.99-23.6,28.45-53.17,50.75-88.71,66.9-35.56,16.16-75.32,24.24-119.27,24.24-53.01,0-100.2-11.3-141.56-33.93-41.38-22.62-73.69-54.93-96.97-96.96-23.27-42.01-34.91-91.14-34.91-147.38s11.47-105.35,34.42-147.38c22.94-42.01,55.1-74.32,96.47-96.96,41.37-22.62,88.87-33.93,142.53-33.93s98.9,11,139.62,32.97c40.73,21.98,72.55,53.33,95.51,94.05,22.93,40.72,34.42,88.23,34.42,142.53,0,15.51-.98,31.68-2.91,48.48ZM5045.94,455.73c0-28.44-9.7-51.06-29.1-67.87-19.39-16.8-43.63-25.21-72.71-25.21s-51.24,8.09-70.31,24.24c-19.07,16.17-30.87,39.12-35.39,68.85h207.5Z"/>
    <path class="cls-1" d="M5396.93,762.12c-36.84-16.15-65.93-38.3-87.26-66.42-21.33-28.12-33.3-59.63-35.87-94.53h163.86c1.94,18.76,10.66,33.93,26.18,45.57,15.51,11.64,34.57,17.45,57.21,17.45,20.68,0,36.68-4.03,47.99-12.12,11.3-8.08,16.97-18.58,16.97-31.51,0-15.51-8.1-26.98-24.24-34.42-16.17-7.42-42.34-15.66-78.54-24.72-38.78-9.04-71.11-18.57-96.96-28.6-25.86-10.02-48.16-25.85-66.9-47.51-18.76-21.65-28.12-50.9-28.12-87.75,0-31.02,8.56-59.3,25.69-84.84,17.12-25.53,42.33-45.72,75.63-60.6,33.29-14.86,72.87-22.3,118.77-22.3,67.87,0,121.36,16.82,160.48,50.42,39.1,33.62,61.57,78.22,67.39,133.81h-153.2c-2.59-18.74-10.84-33.6-24.73-44.6-13.91-10.98-32.16-16.48-54.78-16.48-19.39,0-34.27,3.73-44.6,11.15-10.35,7.44-15.51,17.62-15.51,30.54,0,15.51,8.24,27.15,24.73,34.91,16.48,7.76,42.18,15.51,77.08,23.27,40.06,10.35,72.72,20.53,97.92,30.54,25.21,10.03,47.34,26.18,66.42,48.48,19.07,22.3,28.93,52.21,29.58,89.69,0,31.68-8.9,59.96-26.67,84.84-17.78,24.89-43.31,44.45-76.6,58.66-33.3,14.21-71.91,21.33-115.86,21.33-47.2,0-89.2-8.08-126.05-24.24Z"/>
    <path class="cls-1" d="M6145.46,638.01v140.59h-84.35c-60.12,0-106.99-14.7-140.59-44.12-33.62-29.4-50.42-77.4-50.42-143.98v-215.25h-65.94v-137.68h65.94V105.7h165.8v131.87h108.59v137.68h-108.59v217.19c0,16.17,3.88,27.8,11.64,34.91,7.75,7.12,20.67,10.67,38.78,10.67h59.14Z"/>
    <path class="cls-1" d="M6771.81,237.56v541.04h-165.8v-73.69c-16.82,23.92-39.6,43.15-68.35,57.69-28.77,14.54-60.6,21.82-95.51,21.82-41.38,0-77.9-9.21-109.56-27.64-31.68-18.42-56.24-45.09-73.69-79.99-17.46-34.91-26.19-75.95-26.19-123.14V237.56h164.84v293.79c0,36.21,9.36,64.33,28.12,84.36,18.74,20.04,43.95,30.06,75.63,30.06s57.84-10.02,76.6-30.06c18.74-20.03,28.11-48.15,28.11-84.36V237.56h165.8Z"/>
    <path class="cls-1" d="M6889.61,360.7c21-42.01,49.6-74.32,85.81-96.96,36.2-22.62,76.6-33.93,121.2-33.93,35.55,0,68.03,7.44,97.45,22.3,29.4,14.88,52.51,34.91,69.33,60.12V61.1h165.8v717.5h-165.8v-77.57c-15.51,25.86-37.67,46.54-66.42,62.05-28.77,15.51-62.23,23.27-100.36,23.27-44.6,0-85-11.47-121.2-34.42-36.21-22.94-64.81-55.58-85.81-97.93-21.01-42.33-31.5-91.29-31.5-146.89s10.49-104.38,31.5-146.41ZM7228.97,410.15c-22.95-23.91-50.9-35.88-83.88-35.88s-60.93,11.81-83.87,35.39c-22.95,23.6-34.42,56.08-34.42,97.44s11.47,74.17,34.42,98.41c22.94,24.24,50.9,36.36,83.87,36.36s60.93-11.95,83.88-35.87c22.93-23.91,34.42-56.56,34.42-97.93s-11.49-74-34.42-97.93Z"/>
    <path class="cls-1" d="M7561.54,155.63c-18.42-17.12-27.64-38.3-27.64-63.5s9.21-47.34,27.64-64.48c18.41-17.12,42.18-25.69,71.26-25.69s51.87,8.58,70.3,25.69c18.42,17.14,27.64,38.63,27.64,64.48s-9.21,46.39-27.64,63.5c-18.42,17.14-41.86,25.69-70.3,25.69s-52.85-8.56-71.26-25.69ZM7715.22,237.56v541.04h-165.8V237.56h165.8Z"/>
    <path class="cls-1" d="M7938.7,752.42c-42.34-22.62-75.62-54.93-99.87-96.96-24.24-42.01-36.36-91.14-36.36-147.38s12.27-104.55,36.84-146.89c24.56-42.33,58.17-74.81,100.84-97.44,42.66-22.62,90.49-33.93,143.5-33.93s100.83,11.32,143.5,33.93c42.66,22.64,76.26,55.12,100.83,97.44,24.56,42.34,36.85,91.31,36.85,146.89s-12.46,104.57-37.33,146.89c-24.89,42.35-58.82,74.83-101.81,97.45-42.99,22.63-90.99,33.93-143.98,33.93s-100.68-11.3-143.02-33.93ZM8162.68,607.95c22.3-23.27,33.46-56.56,33.46-99.87s-10.83-76.6-32.48-99.87c-21.67-23.27-48.33-34.91-79.99-34.91s-59.15,11.48-80.48,34.42c-21.32,22.96-32,56.4-32,100.35s10.5,76.6,31.51,99.87c21,23.27,47.34,34.91,79.02,34.91s58.66-11.63,80.96-34.91Z"/>
  </g>
  <g>
    <path class="cls-1" d="M2062.07,1037.12c13.64-7.27,29.24-10.91,46.82-10.91,20.91,0,39.84,5.31,56.81,15.91,16.96,10.61,30.37,25.76,40.22,45.45,9.84,19.71,14.77,42.58,14.77,68.63s-4.93,49.02-14.77,68.86c-9.85,19.85-23.26,35.15-40.22,45.91-16.97,10.75-35.91,16.13-56.81,16.13-17.88,0-33.49-3.56-46.82-10.67-13.34-7.12-23.79-16.59-31.36-28.41v35.45h-77.72v-336.33h77.72v118.62c7.27-11.82,17.73-21.35,31.36-28.63ZM2125.47,1110.52c-10.76-11.06-24.02-16.59-39.77-16.59s-28.56,5.61-39.32,16.82c-10.76,11.21-16.14,26.52-16.14,45.9s5.38,34.7,16.14,45.91c10.75,11.2,23.86,16.81,39.32,16.81s28.63-5.68,39.54-17.04c10.9-11.36,16.36-26.73,16.36-46.13s-5.38-34.61-16.13-45.68Z"/>
    <path class="cls-1" d="M2541.56,1029.85v253.61h-77.72v-34.54c-7.89,11.21-18.56,20.22-32.05,27.04-13.48,6.83-28.41,10.23-44.76,10.23-19.4,0-36.52-4.32-51.36-12.95-14.85-8.64-26.36-21.14-34.55-37.5-8.18-16.36-12.27-35.6-12.27-57.72v-148.17h77.26v137.71c0,16.97,4.39,30.15,13.18,39.54,8.78,9.4,20.6,14.09,35.45,14.09s27.11-4.69,35.91-14.09c8.78-9.39,13.18-22.57,13.18-39.54v-137.71h77.72Z"/>
    <path class="cls-1" d="M2632.69,991.45c-8.64-8.02-12.96-17.95-12.96-29.77s4.32-22.19,12.96-30.22c8.64-8.03,19.77-12.04,33.41-12.04s24.31,4.01,32.95,12.04c8.64,8.03,12.96,18.11,12.96,30.22s-4.32,21.75-12.96,29.77c-8.64,8.04-19.62,12.04-32.95,12.04s-24.77-4-33.41-12.04ZM2704.73,1029.85v253.61h-77.72v-253.61h77.72Z"/>
    <path class="cls-1" d="M2868.34,947.14v336.33h-77.72v-336.33h77.72Z"/>
    <path class="cls-1" d="M2953.56,1087.57c9.84-19.69,23.25-34.84,40.22-45.45,16.96-10.6,35.9-15.91,56.81-15.91,16.66,0,31.88,3.49,45.68,10.46,13.78,6.97,24.61,16.36,32.49,28.18v-117.71h77.72v336.33h-77.72v-36.37c-7.27,12.12-17.65,21.82-31.13,29.09-13.48,7.28-29.17,10.91-47.04,10.91-20.91,0-39.85-5.38-56.81-16.13-16.97-10.76-30.38-26.06-40.22-45.91-9.85-19.84-14.78-42.79-14.78-68.86s4.92-48.92,14.78-68.63ZM3112.64,1110.75c-10.76-11.2-23.86-16.82-39.32-16.82s-28.56,5.53-39.32,16.59c-10.76,11.07-16.14,26.3-16.14,45.68s5.38,34.77,16.14,46.13c10.75,11.36,23.86,17.04,39.32,17.04s28.55-5.6,39.32-16.81c10.75-11.21,16.13-26.51,16.13-45.91s-5.38-34.69-16.13-45.9Z"/>
    <path class="cls-1" d="M3527.36,1037.12c13.64-7.27,29.24-10.91,46.82-10.91,20.91,0,39.84,5.31,56.81,15.91,16.96,10.61,30.37,25.76,40.22,45.45,9.84,19.71,14.77,42.58,14.77,68.63s-4.93,49.02-14.77,68.86c-9.85,19.85-23.26,35.15-40.22,45.91-16.97,10.75-35.91,16.13-56.81,16.13-17.88,0-33.49-3.56-46.82-10.67-13.34-7.12-23.79-16.59-31.36-28.41v35.45h-77.72v-336.33h77.72v118.62c7.27-11.82,17.73-21.35,31.36-28.63ZM3590.76,1110.52c-10.76-11.06-24.02-16.59-39.77-16.59s-28.56,5.61-39.32,16.82c-10.76,11.21-16.14,26.52-16.14,45.9s5.38,34.7,16.14,45.91c10.75,11.2,23.86,16.81,39.32,16.81s28.63-5.68,39.54-17.04c10.9-11.36,16.36-26.73,16.36-46.13s-5.38-34.61-16.13-45.68Z"/>
    <path class="cls-1" d="M3994.12,1175.3h-175.89c1.2,15.75,6.28,27.8,15.22,36.13,8.94,8.33,19.92,12.5,32.95,12.5,19.39,0,32.87-8.18,40.45-24.54h82.72c-4.25,16.67-11.9,31.66-22.95,45-11.07,13.34-24.92,23.79-41.59,31.36-16.66,7.58-35.3,11.36-55.9,11.36-24.85,0-46.97-5.3-66.36-15.9-19.39-10.6-34.54-25.75-45.45-45.45-10.91-19.7-16.36-42.73-16.36-69.09s5.38-49.38,16.14-69.08c10.75-19.69,25.83-34.84,45.22-45.45,19.39-10.6,41.66-15.91,66.81-15.91s46.36,5.16,65.45,15.46c19.09,10.31,34.01,25,44.76,44.09s16.14,41.36,16.14,66.81c0,7.27-.45,14.84-1.36,22.73ZM3915.95,1132.12c0-13.33-4.55-23.93-13.64-31.81-9.09-7.88-20.45-11.83-34.09-11.83s-24.02,3.8-32.95,11.36c-8.94,7.58-14.47,18.34-16.59,32.27h97.26Z"/>
    <path class="cls-1" d="M4207.28,1217.56v65.91h-39.54c-28.18,0-50.15-6.89-65.9-20.68-15.76-13.78-23.64-36.28-23.64-67.49v-100.9h-30.91v-64.54h30.91v-61.81h77.72v61.81h50.9v64.54h-50.9v101.81c0,7.58,1.81,13.04,5.45,16.36,3.63,3.34,9.69,5,18.18,5h27.72Z"/>
    <path class="cls-1" d="M4421.34,1217.56v65.91h-39.54c-28.18,0-50.15-6.89-65.9-20.68-15.76-13.78-23.64-36.28-23.64-67.49v-100.9h-30.9v-64.54h30.9v-61.81h77.72v61.81h50.9v64.54h-50.9v101.81c0,7.58,1.81,13.04,5.45,16.36,3.64,3.34,9.7,5,18.18,5h27.73Z"/>
    <path class="cls-1" d="M4731.76,1175.3h-175.89c1.2,15.75,6.28,27.8,15.23,36.13,8.93,8.33,19.91,12.5,32.94,12.5,19.39,0,32.87-8.18,40.45-24.54h82.72c-4.25,16.67-11.9,31.66-22.95,45-11.07,13.34-24.92,23.79-41.58,31.36-16.67,7.58-35.3,11.36-55.91,11.36-24.85,0-46.97-5.3-66.36-15.9-19.39-10.6-34.54-25.75-45.45-45.45-10.91-19.7-16.36-42.73-16.36-69.09s5.38-49.38,16.14-69.08c10.75-19.69,25.83-34.84,45.22-45.45,19.39-10.6,41.66-15.91,66.81-15.91s46.36,5.16,65.44,15.46c19.1,10.31,34.01,25,44.77,44.09,10.75,19.09,16.14,41.36,16.14,66.81,0,7.27-.45,14.84-1.36,22.73ZM4653.58,1132.12c0-13.33-4.55-23.93-13.63-31.81-9.09-7.88-20.46-11.83-34.09-11.83s-24.02,3.8-32.95,11.36c-8.95,7.58-14.48,18.34-16.59,32.27h97.26Z"/>
    <path class="cls-1" d="M4915.38,1039.17c13.63-8.03,28.78-12.04,45.45-12.04v82.26h-21.36c-19.39,0-33.94,4.17-43.64,12.5-9.7,8.34-14.54,22.95-14.54,43.86v117.72h-77.72v-253.61h77.72v42.27c9.08-13.94,20.45-24.92,34.09-32.95Z"/>
    <path class="cls-1" d="M5156.48,1194.25c-8.63-8.02-12.95-17.95-12.95-29.77s4.32-22.27,12.95-30.45c8.64-8.19,19.78-12.27,33.41-12.27s24.32,4.08,32.95,12.27c8.64,8.18,12.95,18.34,12.95,30.45s-4.31,21.75-12.95,29.77c-8.63,8.04-19.62,12.04-32.95,12.04s-24.77-4-33.41-12.04Z"/>
    <path class="cls-1" d="M5580.52,1037.12c13.48,7.28,23.86,16.82,31.14,28.63v-35.9h77.71v253.16c0,23.33-4.62,44.46-13.86,63.4-9.25,18.93-23.34,34.01-42.27,45.22-18.94,11.2-42.49,16.82-70.67,16.82-37.57,0-68.03-8.87-91.35-26.59-23.34-17.72-36.66-41.74-40-72.04h76.81c2.43,9.7,8.19,17.35,17.27,22.95,9.09,5.61,20.3,8.41,33.63,8.41,16.06,0,28.86-4.63,38.41-13.87s14.32-24.02,14.32-44.31v-35.91c-7.58,11.82-18.03,21.44-31.37,28.86-13.34,7.44-28.94,11.14-46.81,11.14-20.91,0-39.85-5.38-56.81-16.13-16.97-10.76-30.38-26.06-40.22-45.91-9.85-19.84-14.78-42.79-14.78-68.86s4.92-48.92,14.78-68.63c9.84-19.69,23.25-34.84,40.22-45.45,16.96-10.6,35.9-15.91,56.81-15.91,17.87,0,33.55,3.64,47.04,10.91ZM5595.52,1110.75c-10.76-11.2-23.86-16.82-39.32-16.82s-28.56,5.53-39.32,16.59c-10.76,11.07-16.14,26.3-16.14,45.68s5.38,34.77,16.14,46.13c10.75,11.36,23.86,17.04,39.32,17.04s28.55-5.6,39.32-16.81c10.75-11.21,16.14-26.51,16.14-45.91s-5.39-34.69-16.14-45.9Z"/>
    <path class="cls-1" d="M5887.08,1039.17c13.63-8.03,28.78-12.04,45.45-12.04v82.26h-21.36c-19.39,0-33.94,4.17-43.64,12.5-9.7,8.34-14.54,22.95-14.54,43.86v117.72h-77.72v-253.61h77.72v42.27c9.08-13.94,20.45-24.92,34.09-32.95Z"/>
    <path class="cls-1" d="M6047.74,1271.2c-19.84-10.6-35.45-25.75-46.81-45.45s-17.04-42.73-17.04-69.09,5.75-49,17.27-68.86c11.51-19.84,27.27-35.06,47.27-45.68,19.99-10.6,42.41-15.91,67.26-15.91s47.27,5.31,67.27,15.91c20,10.61,35.75,25.84,47.27,45.68,11.51,19.85,17.27,42.81,17.27,68.86s-5.84,49.02-17.5,68.87c-11.67,19.84-27.58,35.07-47.73,45.68-20.15,10.6-42.65,15.9-67.49,15.9s-47.2-5.3-67.04-15.9ZM6152.73,1203.48c10.46-10.91,15.68-26.51,15.68-46.82s-5.08-35.9-15.23-46.81c-10.16-10.91-22.66-16.36-37.5-16.36s-27.72,5.39-37.72,16.14c-10,10.76-15,26.44-15,47.04s4.92,35.91,14.78,46.82c9.84,10.91,22.19,16.36,37.04,16.36s27.5-5.45,37.95-16.36Z"/>
    <path class="cls-1" d="M6682.45,1029.85l-68.63,253.61h-85.9l-40-164.53-41.36,164.53h-85.46l-69.08-253.61h77.72l35.9,181.35,42.73-181.35h82.26l43.18,180.44,35.45-180.44h73.18Z"/>
    <path class="cls-1" d="M6994.68,1094.39h-41.81v189.08h-77.72v-189.08h-28.18v-64.54h28.18v-7.27c0-31.21,8.94-54.92,26.82-71.13,17.87-16.21,44.09-24.31,78.63-24.31,5.75,0,10,.16,12.72.45v65.91c-14.84-.91-25.3,1.21-31.36,6.36-6.07,5.16-9.09,14.39-9.09,27.73v2.27h41.81v64.54Z"/>
    <path class="cls-1" d="M7059.9,1087.57c9.84-19.69,23.25-34.84,40.22-45.45,16.96-10.6,35.9-15.91,56.81-15.91,17.87,0,33.55,3.64,47.04,10.91,13.48,7.28,23.86,16.82,31.14,28.63v-35.9h77.71v253.61h-77.71v-35.91c-7.58,11.83-18.11,21.36-31.59,28.63-13.48,7.28-29.17,10.91-47.04,10.91-20.61,0-39.39-5.38-56.36-16.13-16.97-10.76-30.38-26.06-40.22-45.91-9.85-19.84-14.78-42.79-14.78-68.86s4.92-48.92,14.78-68.63ZM7218.97,1110.75c-10.76-11.2-23.86-16.82-39.32-16.82s-28.56,5.53-39.32,16.59c-10.76,11.07-16.14,26.3-16.14,45.68s5.38,34.77,16.14,46.13c10.75,11.36,23.86,17.04,39.32,17.04s28.55-5.6,39.32-16.81c10.75-11.21,16.14-26.51,16.14-45.91s-5.39-34.69-16.14-45.9Z"/>
    <path class="cls-1" d="M7442.81,1275.73c-17.27-7.57-30.91-17.95-40.9-31.13-10-13.18-15.61-27.95-16.82-44.32h76.81c.91,8.79,5,15.91,12.27,21.36,7.28,5.45,16.21,8.18,26.82,8.18,9.7,0,17.19-1.88,22.5-5.68,5.3-3.78,7.95-8.7,7.95-14.77,0-7.28-3.79-12.65-11.36-16.14s-19.84-7.35-36.81-11.59c-18.18-4.24-33.34-8.71-45.45-13.41-12.12-4.69-22.58-12.11-31.37-22.26-8.79-10.15-13.18-23.87-13.18-41.14,0-14.54,4.01-27.79,12.04-39.77,8.03-11.96,19.84-21.43,35.45-28.41,15.6-6.96,34.17-10.46,55.68-10.46,31.82,0,56.88,7.89,75.22,23.64,18.34,15.75,28.86,36.66,31.59,62.72h-71.81c-1.21-8.79-5.07-15.75-11.59-20.91-6.52-5.15-15.07-7.72-25.67-7.72-9.09,0-16.07,1.75-20.91,5.23-4.85,3.48-7.27,8.26-7.27,14.31,0,7.27,3.86,12.72,11.59,16.36,7.72,3.64,19.77,7.27,36.13,10.91,18.79,4.85,34.09,9.62,45.9,14.31,11.82,4.7,22.19,12.28,31.14,22.73,8.94,10.46,13.55,24.48,13.86,42.05,0,14.84-4.16,28.11-12.5,39.77-8.33,11.67-20.3,20.83-35.9,27.5-15.61,6.66-33.71,9.99-54.32,9.99-22.12,0-41.81-3.78-59.08-11.36Z"/>
    <path class="cls-1" d="M7823.23,1217.56v65.91h-39.54c-28.18,0-50.15-6.89-65.91-20.68-15.75-13.78-23.63-36.28-23.63-67.49v-100.9h-30.9v-64.54h30.9v-61.81h77.72v61.81h50.9v64.54h-50.9v101.81c0,7.58,1.81,13.04,5.45,16.36,3.63,3.34,9.7,5,18.18,5h27.73Z"/>
    <path class="cls-1" d="M8133.64,1175.3h-175.89c1.2,15.75,6.28,27.8,15.23,36.13,8.93,8.33,19.91,12.5,32.94,12.5,19.39,0,32.87-8.18,40.45-24.54h82.72c-4.25,16.67-11.9,31.66-22.95,45-11.07,13.34-24.92,23.79-41.58,31.36-16.67,7.58-35.3,11.36-55.91,11.36-24.85,0-46.97-5.3-66.36-15.9-19.39-10.6-34.54-25.75-45.45-45.45-10.91-19.7-16.36-42.73-16.36-69.09s5.38-49.38,16.14-69.08c10.75-19.69,25.83-34.84,45.22-45.45,19.39-10.6,41.66-15.91,66.81-15.91s46.36,5.16,65.44,15.46c19.1,10.31,34.01,25,44.77,44.09,10.75,19.09,16.14,41.36,16.14,66.81,0,7.27-.45,14.84-1.36,22.73ZM8055.47,1132.12c0-13.33-4.55-23.93-13.63-31.81-9.09-7.88-20.46-11.83-34.09-11.83s-24.02,3.8-32.95,11.36c-8.95,7.58-14.48,18.34-16.59,32.27h97.26Z"/>
    <path class="cls-1" d="M8317.27,1039.17c13.63-8.03,28.78-12.04,45.45-12.04v82.26h-21.36c-19.39,0-33.94,4.17-43.64,12.5-9.7,8.34-14.54,22.95-14.54,43.86v117.72h-77.72v-253.61h77.72v42.27c9.08-13.94,20.45-24.92,34.09-32.95Z"/>
  </g>
</svg>