<?xml version="1.0" encoding="iso-8859-1"?>
<!-- Uploaded to: SVG Repo, www.svgrepo.com, Generator: SVG Repo Mixer Tools -->
<svg fill="#000000" height="800px" width="800px" version="1.1" id="Layer_1" xmlns="http://www.w3.org/2000/svg" xmlns:xlink="http://www.w3.org/1999/xlink" 
	 viewBox="0 0 512 512" xml:space="preserve">
<g>
	<g>
		<path d="M508,180H316c-2.212,0-4,1.792-4,4s1.788,4,4,4h188v264H8V188h184c2.212,0,4-1.792,4-4s-1.788-4-4-4H4
			c-2.212,0-4,1.792-4,4v272c0,2.212,1.788,4,4,4h504c2.212,0,4-1.788,4-4V184C512,181.792,510.212,180,508,180z"/>
	</g>
</g>
<g>
	<g>
		<path d="M472,253.228c-23.084,0-35.164-16.716-35.164-33.228c0-2.208-1.788-4-4-4H288c-2.212,0-4,1.792-4,4s1.788,4,4,4h141.02
			c1.86,20.236,17.764,35.372,38.98,37.068v117.684c-21.224,1.704-37.132,16.916-38.984,37.248H80.064
			C78.168,396.704,62.748,380.812,44,378.808V261.016c18.744-2,34.156-17.812,36.06-37.016H220c2.212,0,4-1.792,4-4s-1.788-4-4-4
			H76.256c-2.212,0-4,1.792-4,4c0,18.012-14.772,33.228-32.256,33.228c-2.212,0-4,1.792-4,4v125.364c0,2.212,1.788,4,4,4
			c17.484,0,32.256,15.3,32.256,33.408c0,2.212,1.788,4,4,4h356.58c2.212,0,4-1.788,4-3.996c0-16.604,12.08-33.408,35.164-33.408
			c2.212,0,4-1.788,4-4V257.228C476,255.02,474.212,253.228,472,253.228z"/>
	</g>
</g>
<g>
	<g>
		<path d="M302.052,241.664c-5.76-7.3-12.252-13.192-19.296-17.516c-1.88-1.16-4.344-0.572-5.504,1.316
			c-1.156,1.88-0.568,4.344,1.316,5.5c6.24,3.828,12.028,9.096,17.204,15.656c0.788,1,1.96,1.52,3.144,1.52
			c0.868,0,1.744-0.28,2.472-0.856C303.124,245.912,303.42,243.4,302.052,241.664z"/>
	</g>
</g>
<g>
	<g>
		<path d="M318.152,271.08c-0.76-2.076-3.06-3.136-5.132-2.376c-2.076,0.76-3.136,3.056-2.376,5.132
			c5.168,14.076,7.904,30.036,7.904,46.16c0,52.98-28.712,96.084-64,96.084c-35.288,0-64-43.104-64-96.084
			c0-38.972,15.56-73.832,39.644-88.824c1.872-1.168,2.448-3.632,1.28-5.508c-1.168-1.88-3.636-2.448-5.508-1.284
			c-26.372,16.42-43.416,53.948-43.416,95.616c0,57.392,32.3,104.084,72,104.084c39.7,0,72-46.692,72-104.084
			C326.548,302.944,323.644,286.024,318.152,271.08z"/>
	</g>
</g>
<g>
	<g>
		<path d="M139.016,315.992c-2.212,0-4,1.788-4,4c0,11.216-9.12,20.336-20.328,20.336c-11.216,0-20.336-9.12-20.336-20.336
			c0-11.208,9.12-20.328,20.336-20.328c2.212,0,4-1.788,4-4c0-2.212-1.788-4-4-4c-15.624,0-28.336,12.708-28.336,28.328
			c0,15.624,12.712,28.336,28.336,28.336c15.62,0,28.328-12.712,28.328-28.336C143.016,317.78,141.228,315.992,139.016,315.992z"/>
	</g>
</g>
<g>
	<g>
		<path d="M275.992,341.804v-8.64c7.368-7.484,11.556-21.028,11.556-37.592c0-23.664-11.016-35.664-32.752-35.664
			c-22.184,0-33.432,12-33.432,35.664c0,16.08,7.548,31.356,10.632,36.92v9.312c-31.784,5.596-38.588,19.384-38.588,30.152
			c0,2.212,1.788,4,4,4c2.212,0,4-1.788,4-4c0-14.496,19.132-20.392,35.18-22.792c1.964-0.292,3.412-1.976,3.412-3.956v-13.764
			c0-0.696-0.184-1.384-0.528-1.988c-2.368-4.128-10.1-18.756-10.1-33.88c0-19.132,7.844-27.664,25.432-27.664
			c17.348,0,24.752,8.272,24.752,27.664c0,14.8-3.904,27.392-10.18,32.852c-0.876,0.764-1.376,1.864-1.376,3.02v13.764
			c0,1.98,1.448,3.664,3.412,3.956c16.412,2.452,35.98,8.396,35.98,22.792c0,2.212,1.788,4,4,4c2.208,0,4-1.788,3.992-4.004
			C315.384,361.228,308.44,347.476,275.992,341.804z"/>
	</g>
</g>
<g>
	<g>
		<path d="M40,216c-2.212,0-4,1.792-4,4v16c0,2.208,1.788,4,4,4s4-1.792,4-4v-16C44,217.792,42.212,216,40,216z"/>
	</g>
</g>
<g>
	<g>
		<path d="M56,216H40c-2.212,0-4,1.792-4,4s1.788,4,4,4h16c2.212,0,4-1.792,4-4S58.212,216,56,216z"/>
	</g>
</g>
<g>
	<g>
		<path d="M472,216c-2.212,0-4,1.792-4,4v16c0,2.208,1.788,4,4,4c2.212,0,4-1.792,4-4v-16C476,217.792,474.212,216,472,216z"/>
	</g>
</g>
<g>
	<g>
		<path d="M472,216h-16c-2.212,0-4,1.792-4,4s1.788,4,4,4h16c2.212,0,4-1.792,4-4S474.212,216,472,216z"/>
	</g>
</g>
<g>
	<g>
		<path d="M472,400c-2.212,0-4,1.788-4,4v16c0,2.212,1.788,4,4,4c2.212,0,4-1.788,4-4v-16C476,401.788,474.212,400,472,400z"/>
	</g>
</g>
<g>
	<g>
		<path d="M472,416h-16c-2.212,0-4,1.788-4,4c0,2.212,1.788,4,4,4h16c2.212,0,4-1.788,4-4C476,417.788,474.212,416,472,416z"/>
	</g>
</g>
<g>
	<g>
		<path d="M40,400c-2.212,0-4,1.788-4,4v16c0,2.212,1.788,4,4,4s4-1.788,4-4v-16C44,401.788,42.212,400,40,400z"/>
	</g>
</g>
<g>
	<g>
		<path d="M56,416H40c-2.212,0-4,1.788-4,4c0,2.212,1.788,4,4,4h16c2.212,0,4-1.788,4-4C60,417.788,58.212,416,56,416z"/>
	</g>
</g>
<g>
	<g>
		<path d="M419.156,315.992c-2.212,0-4,1.788-4,4c0,11.216-9.12,20.336-20.336,20.336c-11.208,0-20.328-9.12-20.328-20.336
			c0-11.208,9.12-20.328,20.328-20.328c2.212,0,4-1.788,4-4c0-2.212-1.788-4-4-4c-15.62,0-28.328,12.708-28.328,28.328
			c0,15.624,12.708,28.336,28.328,28.336c15.624,0,28.336-12.712,28.336-28.336C423.156,317.78,421.368,315.992,419.156,315.992z"/>
	</g>
</g>
<g>
	<g>
		<path d="M346.296,150.288c-0.664-1.396-2.068-2.288-3.616-2.288H312V56c0-2.208-1.788-4-4-4H204c-2.212,0-4,1.792-4,4v92h-33.584
			c-1.548,0-2.956,0.892-3.62,2.288c-0.66,1.4-0.456,3.052,0.524,4.248l88.136,107.516c0.756,0.924,1.892,1.464,3.092,1.464
			c1.2,0,2.332-0.54,3.092-1.464l88.132-107.516C346.752,153.34,346.956,151.684,346.296,150.288z M254.548,253.204L174.868,156H204
			c2.212,0,4-1.792,4-4V60h96v92c0,2.208,1.788,4,4,4h26.232L254.548,253.204z"/>
	</g>
</g>
<g>
	<g>
		<path d="M280,120c-2.212,0-4,1.792-4,4v60.688l-19.748,24.152L236,184.08V88h44c2.212,0,4-1.792,4-4s-1.788-4-4-4h-48
			c-2.212,0-4,1.792-4,4v101.508c0,0.924,0.32,1.82,0.904,2.532l24.252,29.652c0.76,0.928,1.896,1.468,3.096,1.468
			s2.336-0.54,3.096-1.468l23.748-29.044c0.584-0.712,0.904-1.608,0.904-2.532V124C284,121.792,282.212,120,280,120z"/>
	</g>
</g>
</svg>